<?xml version="1.0" encoding="utf-8"?>
<!-- Generator: Adobe Illustrator 23.0.0, SVG Export Plug-In . SVG Version: 6.00 Build 0)  -->
<svg version="1.1" id="Layer_1" xmlns="http://www.w3.org/2000/svg" xmlns:xlink="http://www.w3.org/1999/xlink" x="0px" y="0px"
	 viewBox="0 0 503.5 777.2" style="enable-background:new 0 0 503.5 777.2;" xml:space="preserve">
<style type="text/css">
	.st0{fill:#FFFFFF;}
</style>
<path class="st0" d="M382.9,48.1H122.5c-34,0-61.6,27.6-61.6,61.6v550.6c0,34,27.6,61.6,61.6,61.6h260.4c34,0,61.6-27.6,61.6-61.6
	V109.7C444.5,75.7,417,48.1,382.9,48.1z M193.8,86.2c0-1.8,1.4-3.2,3.2-3.2h111.4c1.8,0,3.2,1.4,3.2,3.2v0.1c0,1.8-1.4,3.2-3.2,3.2
	H197C195.2,89.5,193.8,88.1,193.8,86.2L193.8,86.2z M252.7,700.6c-17.2,0-31.1-13.9-31.1-31.1c0-17.2,13.9-31.1,31.1-31.1
	s31.1,13.9,31.1,31.1C283.8,686.7,269.9,700.6,252.7,700.6z M411.1,608.9c0,5.9-4.8,10.7-10.7,10.7H105c-5.9,0-10.7-4.8-10.7-10.7
	V125.8c0-5.9,4.8-10.7,10.7-10.7h295.3c5.9,0,10.7,4.8,10.7,10.7V608.9z"/>
</svg>
