<svg width="58" height="58" viewBox="0 0 58 58" fill="none" xmlns="http://www.w3.org/2000/svg">
<path d="M41.0459 21.4541C41.1505 21.5585 41.2335 21.6826 41.2901 21.8192C41.3468 21.9558 41.3759 22.1022 41.3759 22.25C41.3759 22.3978 41.3468 22.5442 41.2901 22.6808C41.2335 22.8174 41.1505 22.9415 41.0459 23.0459L25.2959 38.7959C25.1915 38.9005 25.0674 38.9835 24.9308 39.0401C24.7942 39.0967 24.6479 39.1259 24.5 39.1259C24.3522 39.1259 24.2058 39.0967 24.0692 39.0401C23.9326 38.9835 23.8086 38.9005 23.7041 38.7959L16.9541 32.0459C16.743 31.8348 16.6244 31.5485 16.6244 31.25C16.6244 30.9515 16.743 30.6652 16.9541 30.4541C17.1652 30.243 17.4515 30.1244 17.75 30.1244C18.0485 30.1244 18.3349 30.243 18.5459 30.4541L24.5 36.4081L39.4541 21.4541C39.5586 21.3495 39.6826 21.2665 39.8192 21.2099C39.9558 21.1533 40.1022 21.1241 40.25 21.1241C40.3979 21.1241 40.5442 21.1533 40.6808 21.2099C40.8174 21.2665 40.9415 21.3495 41.0459 21.4541ZM57.125 29C57.125 34.5626 55.4755 40.0003 52.3851 44.6254C49.2947 49.2505 44.9022 52.8554 39.763 54.9841C34.6238 57.1128 28.9688 57.6698 23.5131 56.5846C18.0574 55.4994 13.046 52.8207 9.11263 48.8874C5.17928 44.954 2.50064 39.9426 1.41543 34.4869C0.330217 29.0312 0.887186 23.3762 3.0159 18.237C5.14461 13.0979 8.74947 8.70533 13.3746 5.61492C17.9997 2.5245 23.4374 0.875 29 0.875C36.4567 0.883189 43.6057 3.84898 48.8783 9.12167C54.151 14.3944 57.1168 21.5433 57.125 29ZM54.875 29C54.875 23.8824 53.3575 18.8797 50.5143 14.6246C47.6711 10.3695 43.63 7.05303 38.9019 5.09462C34.1739 3.1362 28.9713 2.62379 23.952 3.62218C18.9328 4.62057 14.3223 7.08493 10.7036 10.7036C7.08494 14.3223 4.62059 18.9328 3.62219 23.952C2.6238 28.9713 3.13621 34.1739 5.09463 38.9019C7.05305 43.63 10.3695 47.6711 14.6246 50.5143C18.8798 53.3575 23.8824 54.875 29 54.875C35.8602 54.8675 42.4373 52.139 47.2882 47.2882C52.1391 42.4373 54.8676 35.8602 54.875 29Z" fill="#04A145"/>
</svg>
