<svg width="49" height="48" viewBox="0 0 49 48" fill="none" xmlns="http://www.w3.org/2000/svg">
<g clip-path="url(#clip0_146_1500)">
<path d="M5.6059 40.1406C5.6059 38.8666 5.6255 37.5927 5.5863 36.3187C5.5667 35.8091 5.7431 35.4955 6.21349 35.2407C9.68266 33.3983 13.0342 33.4571 16.229 35.8483C17.601 36.8675 19.071 37.3967 20.7762 37.3575C22.109 37.3183 23.4613 37.3379 24.7941 37.3575C26.1269 37.3771 26.9501 38.1414 26.9501 39.2586C26.9501 40.317 26.1465 41.101 24.8725 41.1402C23.0694 41.199 21.2858 41.1598 19.4826 41.1598C19.1886 41.1598 18.8946 41.1598 18.6006 41.1794C18.1498 41.199 17.8362 41.4342 17.8754 41.9046C17.895 42.3162 18.1694 42.5906 18.581 42.5514C21.717 42.375 24.8725 43.0414 27.9497 41.7282C30.9485 40.4542 34.0649 39.4742 37.142 38.3962C38.2004 38.0238 39.1804 38.4354 39.6116 39.3566C40.0624 40.2778 39.7488 41.2578 38.7884 41.885C38.7296 41.9242 38.6708 41.9634 38.6316 41.983C33.6729 44.923 28.3417 46.9222 22.6382 47.7846C19.5218 48.255 16.4642 47.765 13.5046 46.6086C11.1918 45.707 8.82027 45.0014 6.31149 44.9034C5.7431 44.8838 5.6059 44.629 5.6059 44.1194C5.6255 42.8258 5.6059 41.493 5.6059 40.1406Z" fill="#070707"/>
<path d="M31.0661 6.07599C30.0273 7.09518 29.0669 8.03597 28.1261 8.97676C27.7145 9.38836 27.4009 8.97676 27.0873 8.83956C25.0098 7.87917 22.6382 8.27117 21.0114 9.83916C19.4238 11.3875 18.9534 13.7591 19.8158 15.7975C21.2466 19.1295 25.5978 20.2075 28.2045 17.7183C29.4001 16.5815 30.7329 15.6015 31.8501 14.3863C32.8301 13.3279 33.8885 12.3675 34.8881 11.3287C35.2213 10.9955 35.4761 10.8975 35.8877 11.2111C36.8873 11.9363 38.0633 12.2695 39.2784 12.3283C39.9252 12.3479 40.0036 12.6223 40.0036 13.1711C39.984 15.5231 39.9644 17.8751 40.0036 20.2271C40.0232 21.1875 39.69 21.4619 38.7689 21.4619C31.8109 21.4227 24.853 21.4423 17.895 21.4423C15.4842 21.4423 13.0539 21.4227 10.6431 21.4619C9.81989 21.4815 9.48669 21.2267 9.48669 20.3447C9.52589 15.8955 9.50629 11.4659 9.50629 7.01678C9.50629 6.40919 9.54549 5.91919 10.3687 5.91919C17.1306 5.93879 23.8926 5.93879 30.6545 5.93879C30.7133 5.93879 30.7721 5.97799 31.0661 6.07599ZM17.4638 13.6415C17.4442 11.9363 16.0918 10.6232 14.3867 10.6624C12.7599 10.682 11.4075 12.0539 11.4075 13.6807C11.4075 15.3467 12.7991 16.7187 14.4651 16.7187C16.1506 16.7187 17.4834 15.3663 17.4638 13.6415Z" fill="#C21225"/>
<path d="M33.5749 31.9281C33.5749 33.7509 33.5553 35.5933 33.5945 37.4161C33.5945 37.9649 33.4377 38.2393 32.9085 38.4157C31.6345 38.8273 30.3801 39.278 29.1257 39.768C28.5965 39.964 28.4005 39.964 28.3613 39.2976C28.2633 37.1809 26.9697 35.9853 24.8333 35.9657C23.4221 35.9461 22.0306 35.9657 20.6194 35.9657C19.4042 35.9657 18.3066 35.6521 17.3462 34.8877C16.229 34.0057 15.0138 33.3197 13.6418 32.9277C13.1518 32.7905 13.0538 32.5357 13.0538 32.0849C13.0734 30.1641 13.0538 28.2433 13.0734 26.303C13.093 25.323 13.5242 24.8526 14.5042 24.8134C16.033 24.7742 17.5814 24.8134 19.1102 24.7938C19.6982 24.7742 19.8158 25.0682 19.7962 25.5778C19.7766 26.597 19.7766 27.5965 19.7962 28.6157C19.8158 29.6937 20.1882 29.9289 21.2074 29.4977C21.2662 29.4781 21.3446 29.4585 21.3838 29.4193C22.7166 28.4785 24.0101 28.4981 25.4017 29.4193C26.3621 30.0661 26.8325 29.7133 26.8325 28.5569C26.8521 27.5769 26.8521 26.597 26.8325 25.617C26.8129 25.0682 26.9501 24.7742 27.5773 24.7742C29.0865 24.8134 30.5761 24.7546 32.0853 24.7938C33.1241 24.8134 33.5553 25.2642 33.5749 26.3226C33.5945 28.2041 33.5749 30.0661 33.5749 31.9281Z" fill="#C21225"/>
<path d="M23.8926 4.50814C25.0882 3.25375 26.127 2.07776 27.2637 0.999767C27.9693 0.333373 28.8905 0.0393752 29.8705 0.0393752C34.1237 0.0393752 38.3573 0.0393752 42.6104 0.0197754C43.1396 0.0197754 43.3552 0.156974 43.3552 0.72537C43.3356 3.43015 43.3356 6.15452 43.3552 8.8593C43.3552 9.4081 43.1004 9.6825 42.7084 9.95689C40.8268 11.2897 38.1809 11.2505 36.3385 9.72169C35.4957 9.0357 35.0057 9.1337 34.3001 9.87849C32.9085 11.3485 31.4581 12.7597 30.0077 14.1905C29.0277 15.1509 28.0477 15.2292 27.2637 14.4453C26.519 13.7005 26.5974 12.5833 27.5185 11.6817C29.3609 9.81969 31.2033 7.99691 33.0457 6.13492C33.3593 5.82133 33.8101 5.52733 33.5749 4.97853C33.3397 4.42974 32.8301 4.52774 32.3793 4.52774C29.9293 4.52774 27.4793 4.52774 25.0294 4.52774C24.6962 4.50814 24.3434 4.50814 23.8926 4.50814Z" fill="#070707"/>
<path d="M4.13594 40.0622C4.13594 42.0614 4.11634 44.0409 4.15554 46.0401C4.17514 46.6869 4.03794 46.9613 3.31275 46.9417C0.764771 46.9417 0.764771 46.9613 0.764771 44.4525C0.764771 40.9834 0.80397 37.5338 0.764771 34.0646C0.764771 33.261 0.980369 32.9866 1.82316 33.0258C4.13594 33.0846 4.13594 33.065 4.13594 35.3582C4.13594 36.9262 4.13594 38.4942 4.13594 40.0622Z" fill="#070707"/>
<path d="M44.8252 4.48843C44.8252 3.31243 44.884 2.13644 44.8056 0.960455C44.7664 0.156861 45.0604 -0.0587369 45.8051 6.26277e-05C46.5891 0.0588621 47.3731 0.0392623 48.1571 6.26277e-05C48.7843 -0.039137 49.0195 0.156861 48.9999 0.823256C48.9607 3.27324 48.9607 5.72321 48.9999 8.15359C49.0195 8.85919 48.7451 9.07479 48.0983 9.01599C47.0595 8.93759 45.7463 9.42758 45.0604 8.81999C44.3548 8.19279 44.9036 6.86001 44.8252 5.82121C44.8056 5.40962 44.8252 4.93922 44.8252 4.48843Z" fill="#070707"/>
<path d="M24.6177 17.6008C23.1477 17.5616 21.9129 16.8168 21.2074 15.3272C20.5214 13.8376 20.7174 12.3872 21.7757 11.1328C22.8537 9.87842 24.2649 9.52562 25.8329 9.91762C26.4405 10.0548 26.8717 10.2116 26.2053 10.9564C24.6765 12.6616 25.0489 14.8764 27.0285 15.9936C27.6557 16.3464 27.4989 16.5228 27.0677 16.8364C26.4601 17.3264 25.6369 17.6008 24.6177 17.6008Z" fill="#C21225"/>
<path d="M23.3634 24.7938C25.5978 24.7938 25.5782 24.7938 25.4606 27.1066C25.441 27.675 25.245 27.8514 24.7746 27.5182C23.8142 26.8322 22.9126 26.9694 21.9914 27.5378C21.4818 27.871 21.2074 27.7142 21.2466 27.087C21.2466 27.0478 21.2466 27.0282 21.2466 26.989C21.3054 24.2842 20.8938 24.8526 23.3634 24.7938Z" fill="#C21225"/>
<path d="M16.033 13.6415C16.0526 14.4647 15.3666 15.2094 14.5238 15.2486C13.6222 15.3074 12.8775 14.6214 12.8579 13.7199C12.8383 12.8575 13.4851 12.1519 14.3474 12.0931C15.2294 12.0539 16.0134 12.7791 16.033 13.6415Z" fill="#C21225"/>
</g>
<defs>
<clipPath id="clip0_146_1500">
<rect width="48.2352" height="48" fill="white" transform="translate(0.764771)"/>
</clipPath>
</defs>
</svg>
