<svg width="20" height="20" viewBox="0 0 20 20" fill="none" xmlns="http://www.w3.org/2000/svg">
<path fill-rule="evenodd" clip-rule="evenodd" d="M7.19021 11.6766L9.86299 13.5041L12.4394 11.7267L18.2147 17.4245C18.0627 17.4736 17.9002 17.5 17.7312 17.5H1.99105C1.78327 17.5 1.58494 17.4594 1.40266 17.3867L7.19021 11.6766ZM19.3055 6.99404V15.9257C19.3055 16.1589 19.2545 16.3799 19.1639 16.5792L13.5029 10.9938L19.3055 6.99404ZM0.416657 7.0441L6.12299 10.9465L0.516768 16.4791C0.45037 16.3021 0.416456 16.1147 0.416657 15.9257V7.0441ZM17.7312 3.33337C18.6 3.33337 19.3055 4.03793 19.3055 4.90776V5.46121L9.85921 11.9732L0.416657 5.51504V4.90776C0.416657 4.03887 1.12121 3.33337 1.99105 3.33337H17.7312Z" fill="#070707"/>
</svg>
