<?xml version="1.0" encoding="UTF-8" standalone="no"?>
<!-- Generator: Adobe Illustrator 19.0.0, SVG Export Plug-In . SVG Version: 6.00 Build 0)  -->

<svg
   xmlns:dc="http://purl.org/dc/elements/1.1/"
   xmlns:cc="http://creativecommons.org/ns#"
   xmlns:rdf="http://www.w3.org/1999/02/22-rdf-syntax-ns#"
   xmlns:svg="http://www.w3.org/2000/svg"
   xmlns="http://www.w3.org/2000/svg"
   xmlns:sodipodi="http://sodipodi.sourceforge.net/DTD/sodipodi-0.dtd"
   xmlns:inkscape="http://www.inkscape.org/namespaces/inkscape"
   version="1.1"
   id="Layer_1"
   x="0px"
   y="0px"
   viewBox="0 0 512.001 380.00002"
   xml:space="preserve"
   sodipodi:docname="mail_icon_dark.svg"
   inkscape:version="0.92.4 (5da689c313, 2019-01-14)"
   width="512.00098"
   height="380"><metadata
   id="metadata43"><rdf:RDF><cc:Work
       rdf:about=""><dc:format>image/svg+xml</dc:format><dc:type
         rdf:resource="http://purl.org/dc/dcmitype/StillImage" /><dc:title /></cc:Work></rdf:RDF></metadata><defs
   id="defs41" /><sodipodi:namedview
   pagecolor="#ffffff"
   bordercolor="#666666"
   borderopacity="1"
   objecttolerance="10"
   gridtolerance="10"
   guidetolerance="10"
   inkscape:pageopacity="0"
   inkscape:pageshadow="2"
   inkscape:window-width="1920"
   inkscape:window-height="1027"
   id="namedview39"
   showgrid="false"
   inkscape:snap-bbox="false"
   inkscape:snap-global="true"
   inkscape:zoom="0.92187324"
   inkscape:cx="321.03284"
   inkscape:cy="184.61422"
   inkscape:window-x="1912"
   inkscape:window-y="-8"
   inkscape:window-maximized="1"
   inkscape:current-layer="Layer_1" />
<g
   id="g6"
   style="fill:#ffffff;fill-opacity:1"
   transform="translate(0,-64.556)">
	<g
   id="g4"
   style="fill:#ffffff;fill-opacity:1">
		<path
   d="m 511.646,126.634 c -0.021,-14.449 -11.782,-26.189 -26.227,-26.189 -0.012,0 -0.024,0 -0.034,0 L 26.19,101.076 c -7.005,0.009 -13.588,2.746 -18.535,7.706 -4.946,4.961 -7.664,11.552 -7.655,18.555 l 0.355,258.029 c 0.009,7.005 2.746,13.588 7.706,18.535 4.951,4.938 11.526,7.655 18.519,7.655 0.012,0 0.025,0 0.035,0 l 459.194,-0.631 c 14.458,-0.02 26.207,-11.799 26.19,-26.261 z M 456.611,126.71 256.02,266.154 55.04,127.262 Z m -115.765,165.761 118.971,92.265 -407.972,0.56 119.696,-92.825 c 5.722,-4.439 6.764,-12.675 2.326,-18.399 -4.439,-5.722 -12.675,-6.764 -18.399,-2.326 L 26.561,371.715 26.241,139.24 248.585,292.897 c 2.244,1.551 4.849,2.325 7.455,2.325 2.617,0 5.236,-0.783 7.485,-2.346 l 221.912,-154.264 0.336,233.066 -128.856,-99.931 c -5.719,-4.437 -13.959,-3.396 -18.397,2.326 -4.439,5.722 -3.398,13.96 2.326,18.398 z"
   id="path2"
   style="fill:#ffffff;fill-opacity:1"
   inkscape:connector-curvature="0" />
	</g>
</g>
<g
   id="g8"
   style="fill:#252620;fill-opacity:1"
   transform="translate(0,-64.556)">
</g>
<g
   id="g10"
   style="fill:#252620;fill-opacity:1"
   transform="translate(0,-64.556)">
</g>
<g
   id="g12"
   style="fill:#252620;fill-opacity:1"
   transform="translate(0,-64.556)">
</g>
<g
   id="g14"
   style="fill:#252620;fill-opacity:1"
   transform="translate(0,-64.556)">
</g>
<g
   id="g16"
   style="fill:#252620;fill-opacity:1"
   transform="translate(0,-64.556)">
</g>
<g
   id="g18"
   style="fill:#252620;fill-opacity:1"
   transform="translate(0,-64.556)">
</g>
<g
   id="g20"
   style="fill:#252620;fill-opacity:1"
   transform="translate(0,-64.556)">
</g>
<g
   id="g22"
   style="fill:#252620;fill-opacity:1"
   transform="translate(0,-64.556)">
</g>
<g
   id="g24"
   style="fill:#252620;fill-opacity:1"
   transform="translate(0,-64.556)">
</g>
<g
   id="g26"
   style="fill:#252620;fill-opacity:1"
   transform="translate(0,-64.556)">
</g>
<g
   id="g28"
   style="fill:#252620;fill-opacity:1"
   transform="translate(0,-64.556)">
</g>
<g
   id="g30"
   style="fill:#252620;fill-opacity:1"
   transform="translate(0,-64.556)">
</g>
<g
   id="g32"
   style="fill:#252620;fill-opacity:1"
   transform="translate(0,-64.556)">
</g>
<g
   id="g34"
   style="fill:#252620;fill-opacity:1"
   transform="translate(0,-64.556)">
</g>
<g
   id="g36"
   style="fill:#252620;fill-opacity:1"
   transform="translate(0,-64.556)">
</g>
</svg>