<svg width="72" height="72" viewBox="0 0 72 72" fill="none" xmlns="http://www.w3.org/2000/svg">
<g clip-path="url(#clip0_505_5020)">
<path d="M54.8877 24.2401C55.0692 23.8594 55.3582 23.5402 55.719 23.3218C56.0798 23.1035 56.4967 22.9955 56.9181 23.0113C59.5965 23.0113 62.2749 23.0113 64.9581 23.0113C65.4149 23.0128 65.8624 23.1399 66.2518 23.3786C66.6412 23.6173 66.9575 23.9585 67.1661 24.3649C68.6221 26.7969 70.0845 29.2257 71.5533 31.6513C71.6829 31.8625 71.7357 32.1313 71.9997 32.2465V33.2065C71.717 34.2508 71.5338 35.3196 71.4525 36.3985C71.0157 39.1969 70.6317 42.0049 70.2285 44.8129C70.0653 45.9409 69.8925 47.0641 69.7485 48.1729C69.6045 49.2817 69.6333 49.3201 68.4669 49.2865H68.3277C68.2195 49.1799 68.1426 49.0457 68.1053 48.8984C68.0681 48.7511 68.0719 48.5965 68.1165 48.4513C68.8413 43.5985 69.4845 38.7313 70.2525 33.8833C70.3842 33.1506 70.2314 32.3952 69.8253 31.7713C68.5197 29.6737 67.2669 27.5473 65.9853 25.4353C65.8375 25.1465 65.6081 24.9075 65.3257 24.7479C65.0432 24.5883 64.7201 24.5152 64.3965 24.5377C61.5741 24.5377 58.7517 24.5377 55.9341 24.5377C55.5837 24.5617 55.1421 24.6865 54.8877 24.2401Z" fill="#B43131"/>
<path d="M0.292969 30.0048C0.456726 29.7634 0.683047 29.5711 0.947699 29.4485C1.21235 29.3259 1.50537 29.2776 1.79537 29.3088C5.07857 29.3088 8.36657 29.3088 11.6546 29.3088C11.865 29.3062 12.0753 29.3207 12.2834 29.352C12.538 29.352 12.7822 29.4531 12.9622 29.6331C13.1422 29.8132 13.2434 30.0574 13.2434 30.312C13.2434 30.5666 13.1422 30.8107 12.9622 30.9908C12.7822 31.1708 12.538 31.272 12.2834 31.272C12.0781 31.3164 11.8693 31.3421 11.6594 31.3488H1.74737C1.47184 31.3725 1.19471 31.3275 0.940867 31.2178C0.68702 31.108 0.464394 30.937 0.292969 30.72V30.0048Z" fill="#323232"/>
<path d="M54.8883 24.2401C58.1331 24.2401 61.3731 24.2689 64.6179 24.2401C64.9423 24.2168 65.2663 24.29 65.549 24.4506C65.8318 24.6112 66.0606 24.852 66.2067 25.1425C67.5939 27.4897 69.0051 29.8225 70.4211 32.1553C70.6455 32.5052 70.7279 32.9275 70.6515 33.3361C69.9123 38.3089 69.2115 43.2913 68.4915 48.2689C68.4387 48.6145 68.3907 48.9601 68.3427 49.3057H65.7075C65.4387 48.8257 65.7843 48.4513 65.9235 48.0529C66.3308 47.0069 66.4095 45.8616 66.1491 44.7697C65.6691 42.8833 64.3779 41.8417 62.5539 41.3329C61.8704 41.0855 61.1179 41.1096 60.4515 41.4001C57.2835 41.9761 54.6387 45.1009 55.1091 48.5425C55.1475 48.8257 55.2003 49.1041 54.9267 49.3057H51.1251C51.0084 49.2094 50.921 49.0825 50.8726 48.9391C50.8243 48.7958 50.817 48.6418 50.8515 48.4945C51.0243 47.3761 51.1491 46.2529 51.3315 45.1345C51.3405 44.9965 51.377 44.8618 51.4388 44.7381C51.5006 44.6145 51.5866 44.5044 51.6915 44.4145C52.0275 42.9745 52.1715 41.5345 52.3683 40.0945C52.8723 36.6913 53.3283 33.2881 53.8323 29.8849C54.0435 28.4113 54.2643 26.9425 54.4707 25.4689C54.4998 25.0297 54.6438 24.606 54.8883 24.2401Z" fill="#C34B51"/>
<path d="M14.1884 39.6239H14.2652C14.4902 39.5626 14.725 39.5462 14.9564 39.5759C25.6956 39.5759 36.4316 39.5759 47.1644 39.5759C48.1724 39.5759 48.2732 39.7007 48.1244 40.7327C47.9756 41.7647 47.8556 42.6527 47.7068 43.6127C47.606 44.2463 47.2796 44.4623 46.6556 44.4575C43.0364 44.4575 39.422 44.4575 35.8028 44.4575C35.366 44.4575 35.1644 44.1167 34.9964 43.7759C34.1612 42.1103 32.6636 41.4479 30.9548 41.1167C30.5102 41.0529 30.057 41.1354 29.6636 41.3519C27.9946 41.6881 26.5128 42.6389 25.5116 44.0159C25.2908 44.3135 25.0604 44.6111 24.6332 44.6111C24.0346 44.7173 23.4252 44.7495 22.8188 44.7071C21.326 44.7071 19.8332 44.7071 18.3404 44.7071C17.4284 44.7071 17.1596 44.9711 16.9724 45.8687C16.7852 46.7663 16.7324 46.8287 15.7868 46.8287C14.9468 46.8287 14.1068 46.8287 13.2668 46.8287C13.0556 45.9455 13.406 45.1055 13.502 44.2463C13.6748 42.7199 13.9532 41.1791 14.1884 39.6239Z" fill="#FABE6E"/>
<path d="M48.0482 39.5184C48.125 37.8864 48.4562 36.288 48.6722 34.68C49.1522 31.2432 49.6322 27.816 50.1506 24.384C50.2658 23.5824 50.3186 22.7616 50.4962 21.984C50.6546 21.3072 50.4098 21.1824 49.805 21.1824C45.9314 21.1824 42.0578 21.1824 38.189 21.1824H16.8482C16.8436 21.1603 16.8436 21.1374 16.8482 21.1152C17.213 18.984 16.6514 19.32 18.821 19.3152C29.7938 19.3152 40.765 19.3152 51.7346 19.3152C52.805 19.3152 52.7858 19.3152 52.6274 20.3616C52.1474 23.352 51.7394 26.3424 51.3122 29.3376C50.8226 32.7456 50.3426 36.1536 49.8722 39.5616C49.6079 39.7611 49.2838 39.8654 48.9527 39.8576C48.6216 39.8497 48.3029 39.7302 48.0482 39.5184Z" fill="#AF383E"/>
<path d="M49.7275 49.3056H34.9099C34.6939 49.008 34.8523 48.7344 34.9675 48.456C35.4628 47.4271 35.6303 46.2711 35.4475 45.144C35.3947 44.8752 35.2555 44.4672 35.7499 44.3616H46.2187C46.7255 44.3846 47.2328 44.3263 47.7211 44.1888C47.9573 44.0861 48.2175 44.0519 48.4721 44.0901C48.7268 44.1283 48.9655 44.2374 49.1611 44.4048L50.4283 44.4528C50.5385 44.5401 50.6221 44.6565 50.6696 44.7888C50.7171 44.9212 50.7266 45.0641 50.6971 45.2016C50.5051 46.3248 50.3995 47.4576 50.2171 48.5616C50.1998 48.7154 50.1464 48.8629 50.0613 48.9922C49.9763 49.1214 49.8619 49.2288 49.7275 49.3056Z" fill="#C44B51"/>
<path d="M54.9268 49.3201C54.394 45.0913 56.4484 41.9905 60.3844 41.0977C61.3444 41.0977 62.3044 41.0977 63.1252 41.6737C63.8608 42.1048 64.4729 42.7182 64.9025 43.4547C65.3322 44.1912 65.5648 45.0259 65.578 45.8785C65.6452 48.6865 64.4308 50.7409 62.0164 52.1185C61.5012 52.3835 60.9496 52.5711 60.3796 52.6753C57.7588 52.8673 55.9636 51.7057 54.9268 49.3201Z" fill="#323232"/>
<path d="M24.8303 44.4385C25.9967 42.7393 27.4943 41.5105 29.5679 41.0785C30.1557 41.0045 30.7523 41.0488 31.3227 41.2087C31.8932 41.3686 32.4259 41.6409 32.8895 42.0097C33.4293 42.4339 33.8749 42.9658 34.198 43.5715C34.5211 44.1772 34.7146 44.8435 34.7663 45.5281C34.8785 46.5633 34.7444 47.6104 34.3749 48.5839C34.0053 49.5574 33.4108 50.4297 32.6399 51.1297C31.7912 51.9291 30.7293 52.4658 29.5823 52.6753C26.8943 52.7953 25.2239 51.7441 24.2063 49.3153C24.0523 49.2333 23.9236 49.1108 23.8339 48.9612C23.7443 48.8115 23.6971 48.6402 23.6975 48.4657C23.5788 47.3562 23.744 46.2347 24.1775 45.2065C24.3002 44.883 24.5308 44.6117 24.8303 44.4385Z" fill="#323232"/>
<path d="M24.8309 44.4384C24.0533 45.984 23.6597 47.5824 24.1925 49.3008C21.9317 49.3008 19.6709 49.3248 17.4101 49.3008C16.5797 49.3008 16.2485 48.8688 16.3541 48.0384C16.4981 46.8912 16.4981 46.9008 15.3605 46.8912C14.6645 46.8912 13.9685 46.8624 13.2725 46.848C14.1797 46.848 15.0869 46.8 15.9941 46.8048C16.3637 46.8048 16.5605 46.6992 16.5701 46.3248C16.5888 46.0922 16.6241 45.8612 16.6757 45.6336C16.6848 45.4635 16.7277 45.2969 16.802 45.1436C16.8763 44.9903 16.9803 44.8533 17.1082 44.7407C17.236 44.628 17.385 44.542 17.5464 44.4877C17.7079 44.4333 17.8785 44.4117 18.0485 44.424C20.3093 44.4192 22.5605 44.4336 24.8309 44.4384Z" fill="#C44B51"/>
<path d="M7.87187 35.4432C6.82547 35.4432 5.77907 35.4432 4.72787 35.4432C3.95028 35.4432 3.53267 35.0688 3.50867 34.4832C3.47507 33.816 3.90227 33.4224 4.76147 33.408C6.15827 33.408 7.55507 33.408 8.95187 33.408C9.64787 33.408 10.3487 33.408 11.0447 33.408C11.7407 33.408 12.2399 33.8448 12.2495 34.416C12.2591 34.9872 11.8031 35.4384 11.0159 35.4528C9.96947 35.4528 8.91827 35.4528 7.87187 35.4528V35.4432Z" fill="#323232"/>
<path d="M49.1664 44.4L35.6208 44.4384C35.5776 44.4096 35.5632 44.3808 35.568 44.3472C35.5728 44.3136 35.568 44.2896 35.5968 44.2896C39.2304 44.2896 42.8688 44.2896 46.5072 44.2896C47.064 44.2896 47.3424 44.1792 47.4048 43.5552C47.5104 42.4704 47.712 41.3904 47.8848 40.3152C47.952 39.8832 47.8368 39.6288 47.3472 39.6576C47.1408 39.6576 46.9296 39.6576 46.7184 39.6576H15.3168C14.9664 39.6576 14.616 39.6576 14.2656 39.6336C14.5708 39.5144 14.9024 39.4796 15.2256 39.5328H47.0688C47.3952 39.5328 47.7216 39.5328 48.0288 39.5328L49.824 39.576L49.1664 44.4Z" fill="#EEA658"/>
<path d="M35.5965 44.2897V44.4385C36.1053 46.1713 35.7309 47.7985 34.8861 49.3057C34.3679 50.138 33.6895 50.859 32.8902 51.4268C32.0908 51.9945 31.1866 52.3977 30.2301 52.6129C30.0029 52.6484 29.7736 52.6692 29.5437 52.6753C31.2567 52.0837 32.7053 50.9055 33.6333 49.3489C34.7421 47.5249 34.9485 44.5873 33.1533 42.7009C32.3438 41.8431 31.2468 41.3134 30.0717 41.2129C29.8839 41.2235 29.6966 41.1837 29.5293 41.0977C32.1933 40.5121 34.2765 41.6161 35.5965 44.2897Z" fill="#1A1A1A"/>
<path d="M60.3787 52.6799C62.1522 52.0658 63.6361 50.8178 64.5451 49.1759C65.6731 47.1311 65.6587 44.1119 63.6235 42.4079C62.8224 41.7684 61.8642 41.3556 60.8491 41.2127C60.6907 41.1839 60.5371 41.1359 60.3691 41.0975C61.6611 40.7793 63.0264 40.9854 64.1669 41.6708C65.3073 42.3561 66.1301 43.465 66.4555 44.7551C66.8395 46.3871 66.4555 47.8799 65.6923 49.3199C64.6564 50.9702 63.0136 52.1476 61.1179 52.5983C60.8733 52.6395 60.6265 52.6667 60.3787 52.6799Z" fill="#1A1A1A"/>
<path d="M8.69789 37.5456H10.3779C10.4933 37.5324 10.6102 37.5425 10.7216 37.5755C10.833 37.6085 10.9367 37.6636 11.0263 37.7375C11.1159 37.8115 11.1897 37.9027 11.2432 38.0058C11.2968 38.1089 11.329 38.2218 11.3379 38.3376C11.3703 38.4631 11.3754 38.5941 11.3526 38.7218C11.3299 38.8494 11.28 38.9706 11.2062 39.0772C11.1324 39.1838 11.0365 39.2732 10.925 39.3394C10.8136 39.4056 10.6892 39.447 10.5603 39.4608C9.33145 39.5856 8.09312 39.5856 6.86429 39.4608C6.60968 39.4392 6.3741 39.3173 6.20936 39.1219C6.04463 38.9266 5.96424 38.6738 5.98589 38.4192C6.00753 38.1646 6.12943 37.929 6.32476 37.7643C6.5201 37.5996 6.77288 37.5192 7.02749 37.5408L8.69789 37.5456Z" fill="#323232"/>
<path d="M49.7275 49.3056C50.0443 47.6976 50.2747 46.0752 50.4331 44.448H51.7051L51.2251 48.288C51.1867 48.6288 51.1675 48.9744 51.1339 49.32L49.7275 49.3056Z" fill="#A33339"/>
<path d="M66.8158 32.4001C63.5998 32.4001 60.3838 32.4001 57.1678 32.4337C56.7262 32.4337 56.6878 32.2465 56.7262 31.8865C57.0238 29.9665 57.307 28.0177 57.595 26.0833C58.9624 25.9857 60.3341 25.9648 61.7038 26.0209C63.5806 26.0209 63.3022 25.7905 64.3198 27.4897C65.0734 28.7473 65.8318 30.0001 66.5854 31.2625C66.787 31.5985 67.1326 31.9441 66.8158 32.4001Z" fill="#FEFEFE"/>
<path d="M66.8163 32.3999C66.0579 30.8255 64.9347 29.4479 64.2195 27.8687C63.5043 26.2895 62.5299 25.8671 60.9459 26.0543C59.8275 26.1315 58.7055 26.1411 57.5859 26.0831C57.7203 25.8287 57.9603 25.9487 58.1475 25.9487C60.0675 25.9487 61.9875 25.9487 63.9075 25.9487C64.0794 25.9319 64.2522 25.9692 64.4018 26.0552C64.5515 26.1412 64.6707 26.2718 64.7427 26.4287C65.8179 28.2527 66.9107 30.0687 68.0211 31.8767C68.3331 32.3855 68.2707 32.5823 67.6563 32.5199C67.3683 32.4623 67.0803 32.5487 66.8163 32.3999Z" fill="#FEFEFE"/>
<path d="M61.0891 49.3585C60.6416 49.5325 60.1505 49.5607 59.6859 49.4392C59.2213 49.3177 58.807 49.0526 58.5019 48.6817C58.1945 48.295 58.0139 47.823 57.9847 47.3299C57.9555 46.8368 58.0791 46.3467 58.3387 45.9265C58.5142 45.5707 58.7599 45.2542 59.061 44.996C59.3621 44.7378 59.7124 44.5432 60.0907 44.4241C60.6127 44.2527 61.1813 44.2954 61.6718 44.5429C62.1623 44.7904 62.5345 45.2224 62.7067 45.7441C62.9201 46.3231 62.934 46.9569 62.7462 47.5447C62.5583 48.1325 62.1796 48.6408 61.6699 48.9889C61.4647 49.0927 61.2701 49.2165 61.0891 49.3585Z" fill="#FEFEFE"/>
<path d="M61.0892 49.3583C61.3484 48.8783 61.8812 48.6671 62.1404 48.1775C62.6204 47.2991 62.7836 46.4447 62.2604 45.5279C62.0492 45.1493 61.7301 44.8422 61.3437 44.6456C60.9573 44.449 60.5212 44.3718 60.0908 44.4239C60.5062 44.2102 60.979 44.135 61.4402 44.2092C61.9014 44.2835 62.3267 44.5034 62.654 44.8367C62.9988 45.1563 63.2344 45.5762 63.3274 46.0371C63.4204 46.4979 63.3662 46.9764 63.1724 47.4047C63.0281 47.885 62.7594 48.3186 62.3936 48.6617C62.0277 49.0047 61.5778 49.2451 61.0892 49.3583Z" fill="#FEFEFE"/>
<path d="M30.2738 49.3584C29.8468 49.5211 29.3804 49.5494 28.9368 49.4396C28.4933 49.3298 28.0939 49.0871 27.7922 48.744C27.4829 48.4056 27.283 47.9816 27.2187 47.5277C27.1545 47.0737 27.2289 46.6109 27.4322 46.2C27.5854 45.7832 27.8314 45.4067 28.1516 45.099C28.4717 44.7913 28.8577 44.5605 29.2802 44.424C30.6146 44.1984 31.469 44.5968 31.9058 45.6576C32.13 46.2364 32.1574 46.8729 31.9839 47.4689C31.8104 48.0648 31.4456 48.5871 30.9458 48.9552C30.7128 49.0739 30.4883 49.2087 30.2738 49.3584Z" fill="#FEFEFE"/>
<path d="M30.2739 49.3585C30.6541 48.9925 31.0056 48.5977 31.3251 48.1777C31.8051 47.3185 32.0307 46.4401 31.5027 45.5473C31.2918 45.155 30.9656 44.8369 30.5682 44.6361C30.1707 44.4352 29.7212 44.3612 29.2803 44.4241C29.6814 44.2058 30.1414 44.1203 30.5941 44.1798C31.0469 44.2393 31.4692 44.4408 31.8003 44.7553C32.1565 45.0465 32.4121 45.4424 32.531 45.8868C32.6499 46.3313 32.626 46.8019 32.4627 47.2321C32.3301 47.7542 32.0553 48.2294 31.6689 48.6048C31.2825 48.9801 30.7996 49.241 30.2739 49.3585Z" fill="#FEFEFE"/>
<path d="M49.9197 20.8801C49.5693 20.8801 49.2189 20.8801 48.8685 20.8801H18.5661C18.2157 20.8801 17.8701 20.8801 17.5197 20.8801C17.3913 20.8705 17.2627 20.8932 17.1453 20.946C17.028 20.9988 16.9257 21.0801 16.8477 21.1825C16.3677 24.6385 15.8877 28.0945 15.3693 31.5505C14.9789 34.2449 14.5853 36.9361 14.1885 39.6241C14.2194 39.6581 14.2572 39.6852 14.2994 39.7034C14.3416 39.7216 14.3873 39.7306 14.4333 39.7297C25.4061 39.7488 36.3789 39.7488 47.3517 39.7297C47.6082 39.7655 47.8695 39.722 48.1005 39.6049C48.3514 39.2101 48.4862 38.7526 48.4893 38.2849L49.8573 28.7377C50.1789 26.4817 50.5101 24.2209 50.8173 21.9601C50.9133 21.2401 50.6493 20.9329 49.9197 20.8801Z" fill="#C44B51"/>
<path d="M25.7003 28.4421C25.7385 28.5358 25.7595 28.6635 25.7633 28.8252C25.7781 28.9785 25.7643 29.1403 25.7222 29.3105C25.6401 29.6426 25.5065 29.881 25.3216 30.0257C25.1476 30.1619 24.9378 30.2301 24.6922 30.2301H21.9293L21.5723 31.6732H24.4535C24.5005 31.7669 24.527 31.8903 24.5329 32.0436C24.5476 32.1968 24.5339 32.3586 24.4918 32.5289C24.4117 32.8524 24.2792 33.0865 24.0943 33.2313C23.9203 33.3675 23.7105 33.4356 23.4649 33.4356H21.1625L20.4958 36.1303C20.393 36.1559 20.2332 36.1814 20.0164 36.207C19.8083 36.2325 19.6034 36.2453 19.4017 36.2453C19.2 36.2453 19.0244 36.2283 18.8749 36.1942C18.7321 36.1687 18.6176 36.1176 18.5313 36.0409C18.445 35.9643 18.3924 35.8579 18.3735 35.7217C18.3546 35.5854 18.3725 35.4066 18.4273 35.1853L19.8018 29.6298C19.8924 29.2637 20.0737 28.9742 20.3456 28.7614C20.6175 28.5485 20.9421 28.4421 21.3192 28.4421H25.7003Z" fill="#FEFEFE"/>
<path d="M28.7946 28.5539C28.9675 28.4674 29.215 28.3852 29.5371 28.3074C29.8682 28.2296 30.1896 28.1907 30.5014 28.1907C30.9469 28.1907 31.3228 28.2555 31.6292 28.3852C31.9467 28.5063 32.1213 28.7009 32.153 28.969C32.2021 29.4187 32.2463 29.9419 32.2858 30.5386C32.3252 31.1353 32.3593 31.7536 32.3881 32.3936C32.419 33.0249 32.4465 33.6519 32.4706 34.2745C32.4968 34.8886 32.5179 35.4334 32.5339 35.909C32.397 36.0301 32.2131 36.1252 31.9822 36.1944C31.7491 36.2722 31.4856 36.3112 31.1916 36.3112C30.9778 36.3112 30.7994 36.2939 30.6565 36.2593C30.5226 36.2247 30.4151 36.1728 30.3343 36.1036C30.2623 36.0344 30.209 35.9436 30.1745 35.8312C30.1488 35.7188 30.1319 35.589 30.1238 35.442L30.1047 34.547H27.686C27.5505 34.8064 27.4129 35.0745 27.2732 35.3512C27.1334 35.628 26.9958 35.896 26.8604 36.1555C26.7249 36.1987 26.5827 36.2333 26.4338 36.2593C26.2916 36.2939 26.1225 36.3112 25.9265 36.3112C25.4722 36.3112 25.1518 36.2376 24.9655 36.0906C24.7902 35.935 24.7357 35.7231 24.802 35.455C24.832 35.3339 24.8797 35.2129 24.9453 35.0918C25.0109 34.9707 25.0863 34.828 25.1715 34.6637C25.2917 34.4302 25.448 34.1405 25.6405 33.7946C25.8419 33.4487 26.0586 33.0768 26.2907 32.679C26.5249 32.2725 26.7701 31.8574 27.0264 31.4337C27.2827 31.0099 27.5237 30.6121 27.7493 30.2402C27.9771 29.8597 28.1808 29.5225 28.3605 29.2284C28.549 28.9344 28.6937 28.7095 28.7946 28.5539ZM29.9842 30.2273C29.7696 30.5905 29.5265 30.9969 29.2548 31.4466C28.9943 31.8877 28.7449 32.3374 28.5068 32.7957H30.1638C30.1546 32.3287 30.1378 31.8747 30.1133 31.4337C30.0998 30.984 30.0835 30.5818 30.0643 30.2273H29.9842Z" fill="#FEFEFE"/>
<path d="M36.6858 33.0552C36.3259 32.9255 36.0017 32.7957 35.713 32.666C35.4266 32.5276 35.191 32.3633 35.0065 32.1731C34.8219 31.9828 34.6949 31.758 34.6255 31.4985C34.5671 31.2304 34.585 30.9061 34.6791 30.5256C34.861 29.7905 35.296 29.2025 35.9842 28.7614C36.6813 28.3204 37.5555 28.0999 38.6068 28.0999C38.9898 28.0999 39.3398 28.1258 39.6566 28.1777C39.9733 28.2296 40.2336 28.3117 40.4375 28.4242C40.6523 28.5279 40.8052 28.6663 40.896 28.8393C40.989 29.0036 41.0077 29.1982 40.952 29.423C40.8964 29.6478 40.7948 29.8424 40.6472 30.0067C40.5018 30.1624 40.3395 30.2965 40.1602 30.4089C39.9942 30.2878 39.757 30.184 39.4488 30.0975C39.1427 30.0024 38.7937 29.9549 38.4017 29.9549C38.0008 29.9549 37.6929 30.0111 37.478 30.1235C37.2652 30.2273 37.1385 30.3613 37.0979 30.5256C37.0658 30.6553 37.0969 30.7634 37.1913 30.8499C37.2879 30.9278 37.4434 31.0013 37.6579 31.0704L38.3116 31.291C39.0849 31.5504 39.6439 31.8834 39.9888 32.2898C40.3447 32.6876 40.4371 33.2325 40.2659 33.9243C40.084 34.6594 39.638 35.2561 38.9277 35.7144C38.2195 36.1641 37.2864 36.389 36.1282 36.389C35.7184 36.389 35.3439 36.3544 35.0047 36.2852C34.6722 36.2247 34.3873 36.1339 34.15 36.0128C33.9237 35.8831 33.7573 35.7274 33.6508 35.5458C33.5554 35.3555 33.5376 35.1393 33.5975 34.8972C33.6596 34.6464 33.7877 34.4345 33.9819 34.2616C34.1783 34.08 34.3774 33.9416 34.5791 33.8465C34.7815 34.0367 35.0437 34.201 35.3658 34.3394C35.6968 34.4778 36.0762 34.547 36.5038 34.547C36.9403 34.547 37.2637 34.4821 37.474 34.3524C37.6843 34.2227 37.8108 34.0713 37.8536 33.8984C37.8964 33.7254 37.8572 33.5957 37.7361 33.5092C37.6171 33.4141 37.4391 33.3233 37.2021 33.2368L36.6858 33.0552Z" fill="#FEFEFE"/>
<path d="M41.9259 30.1365C41.8871 30.0413 41.8612 29.9116 41.8484 29.7473C41.8356 29.583 41.8517 29.41 41.8966 29.2284C41.9801 28.8911 42.1157 28.649 42.3036 28.502C42.5003 28.355 42.7234 28.2815 42.9728 28.2815H48.7992C48.838 28.3766 48.8638 28.5063 48.8766 28.6706C48.8894 28.8349 48.8733 29.0079 48.8284 29.1895C48.745 29.5268 48.6049 29.7689 48.4081 29.9159C48.2203 30.063 48.0017 30.1365 47.7522 30.1365H46.2689L44.7861 36.1295C44.6817 36.1555 44.5194 36.1814 44.2991 36.2074C44.0878 36.2333 43.8797 36.2463 43.6748 36.2463C43.4699 36.2463 43.2915 36.229 43.1397 36.1944C42.9947 36.1685 42.8784 36.1166 42.7907 36.0387C42.7031 35.9609 42.6496 35.8528 42.6304 35.7144C42.6112 35.5761 42.6294 35.3945 42.685 35.1696L43.9304 30.1365H41.9259Z" fill="#FEFEFE"/>
</g>
<defs>
<clipPath id="clip0_505_5020">
<rect width="72" height="72" fill="white"/>
</clipPath>
</defs>
</svg>
