<svg width="17" height="24" viewBox="0 0 17 24" fill="none" xmlns="http://www.w3.org/2000/svg">
<g clip-path="url(#clip0_260_603)">
<path d="M8.37475 23.9907C5.7518 23.9907 3.12885 23.9813 0.5059 24.0001C0.140561 24.0001 -0.00932203 23.9345 4.56501e-05 23.5223C0.018781 19.0258 0.00941333 14.5294 4.56501e-05 10.0329C4.56501e-05 9.65816 0.112458 9.51764 0.477797 9.56448C0.599577 9.58322 0.730725 9.55511 0.852505 9.57385C1.15227 9.61132 1.21784 9.4708 1.21784 9.19914C1.22721 8.24364 1.15227 7.2975 1.27405 6.342C1.7799 2.53872 4.93681 -0.131069 8.77756 0.00944621C12.4122 0.131226 15.4005 3.11952 15.616 6.86659C15.6628 7.62537 15.6441 8.39352 15.6253 9.16167C15.616 9.48954 15.7096 9.59258 16.0469 9.58322C16.8431 9.57385 16.8431 9.59258 16.8431 10.3701C16.8431 14.7448 16.8338 19.1101 16.8525 23.4849C16.8525 23.8877 16.7682 24.0094 16.3373 24.0094C13.6862 23.9813 11.0258 23.9907 8.37475 23.9907ZM8.41222 9.58322C9.88295 9.58322 11.3443 9.57385 12.815 9.59258C13.1148 9.59258 13.2272 9.51764 13.2178 9.19914C13.1991 8.5153 13.2178 7.82209 13.2085 7.13825C13.171 4.71202 11.2881 2.64176 8.95555 2.44504C6.3888 2.22959 4.19677 3.8502 3.73775 6.3139C3.55976 7.26003 3.70028 8.21554 3.64407 9.16167C3.62534 9.48954 3.73775 9.58322 4.06562 9.58322C5.50824 9.57385 6.96023 9.58322 8.41222 9.58322ZM8.39349 20.3842C9.07733 20.3842 9.76117 20.3748 10.4544 20.3842C10.7354 20.3935 10.8103 20.2998 10.7354 20.0282C10.5293 19.26 10.3513 18.4919 10.1546 17.7237C10.089 17.4802 10.1265 17.3022 10.2858 17.0867C11.082 16.0563 10.9602 14.6792 10.0328 13.8361C9.09606 12.9931 7.72838 13.0024 6.81035 13.8549C5.89232 14.7073 5.78927 16.0938 6.58553 17.1055C6.75414 17.3209 6.77288 17.4989 6.7073 17.7425C6.51058 18.4825 6.35133 19.2226 6.14524 19.9626C6.0422 20.3186 6.14524 20.4029 6.48248 20.3935C7.11011 20.3748 7.74712 20.3842 8.39349 20.3842Z" fill="#070707"/>
</g>
<defs>
<clipPath id="clip0_260_603">
<rect width="16.8525" height="24" fill="white"/>
</clipPath>
</defs>
</svg>
