<svg width="47" height="48" viewBox="0 0 47 48" fill="none" xmlns="http://www.w3.org/2000/svg">
<g clip-path="url(#clip0_146_1489)">
<path d="M44.5706 22.2537C43.9355 22.2537 43.3376 22.4993 42.8888 22.9477L36.2379 29.3652L35.9716 29.622L36.0647 29.9792C36.1113 30.156 36.1411 30.3179 36.1541 30.476C36.3068 32.0762 35.3328 33.5275 33.7832 34.0057C33.4796 34.0988 33.1313 34.1453 32.7495 34.1453H23.901C23.6346 34.1453 23.4186 33.9294 23.4186 33.6634C23.4186 33.3973 23.6346 33.1814 23.901 33.1814H32.8184C33.4908 33.1814 34.1333 32.8968 34.5841 32.4C35.0348 31.905 35.2545 31.237 35.1894 30.5672C35.0757 29.3633 34.0011 28.42 32.7421 28.42H23.5825C22.6587 28.42 21.7778 28.2171 21.0346 27.832C19.6452 27.1119 18.1497 26.7453 16.5908 26.7453C14.7339 26.7453 12.8882 27.2719 11.2567 28.2674C9.63637 29.2554 8.34568 30.6305 7.52061 32.2437L7.31201 32.653L7.63608 32.9768L15.5329 40.8661L15.9799 41.307L16.4269 40.8679L16.6634 40.6353C17.7791 39.5208 19.2578 38.9086 20.8298 38.9086H35.1149C35.6978 38.9086 36.2416 38.65 36.6086 38.1978L46.2785 26.2932C46.7143 25.8485 46.9527 25.2605 46.9527 24.6335C46.9527 23.9953 46.705 23.398 46.2524 22.9514C45.8017 22.5011 45.2038 22.2537 44.5706 22.2537Z" fill="#070707"/>
<path d="M10.2529 48.0001C10.7837 48.0001 11.2809 47.7935 11.6553 47.4195L14.7973 44.2806C15.5851 43.4935 15.5851 42.2115 14.7973 41.4244L6.58194 33.2169C6.20014 32.8355 5.69169 32.6252 5.15343 32.6252C4.61332 32.6252 4.10673 32.8355 3.72493 33.2169L0.581088 36.3541C0.206733 36.7299 0 37.2267 0 37.757C0 38.2873 0.206733 38.7841 0.581088 39.1581L8.85042 47.4195C9.22478 47.7935 9.72206 48.0001 10.2529 48.0001ZM5.26891 38.5925C4.5649 38.5925 3.99498 38.0231 3.99498 37.3197C3.99498 36.6164 4.5649 36.047 5.26891 36.047C5.97292 36.047 6.54283 36.6164 6.54283 37.3197C6.54283 38.0231 5.97292 38.5925 5.26891 38.5925Z" fill="#070707"/>
<path d="M15.2181 23.3497C15.4062 23.5451 15.667 23.6567 15.9389 23.6567C16.2108 23.6567 16.4716 23.5451 16.6597 23.3497L18.9784 20.9382L19.0194 20.8955C20.0065 23.0464 21.7144 24.7992 23.8376 25.8411C23.9177 25.9193 24.0127 25.9863 24.1226 26.0347C24.1952 26.0681 24.266 26.0998 24.3386 26.1296C25.6107 26.6673 26.9628 26.9408 28.3559 26.9408C29.7491 26.9408 31.0993 26.6673 32.3733 26.1296C33.6025 25.6104 34.7051 24.868 35.6531 23.9209C36.6011 22.9738 37.3442 21.8723 37.8638 20.6443C38.4021 19.3734 38.674 18.0226 38.674 16.6308C38.674 15.239 38.4021 13.89 37.8638 12.6173C37.3442 11.3892 36.6011 10.2877 35.6531 9.34248C34.7051 8.3954 33.6025 7.65298 32.3733 7.13199C31.1012 6.59426 29.7491 6.3226 28.3559 6.3226C26.9628 6.3226 25.6125 6.59426 24.3386 7.13199C23.1094 7.65298 22.0068 8.3954 21.0588 9.34248C20.1108 10.2877 19.3677 11.3892 18.8481 12.6173C18.7866 12.7624 18.7289 12.9075 18.6749 13.0545C18.3489 13.9309 18.172 14.8557 18.1273 15.7897C18.1217 15.9088 18.118 16.0261 18.1161 16.1451V16.16C18.1161 16.7629 18.6059 17.2522 19.2094 17.2522H19.7327C19.7402 17.2522 19.7439 17.2615 19.7383 17.2671L18.3117 18.7501L18.2651 18.7985L15.9445 21.2118H15.9333L12.1376 17.2671C12.132 17.2615 12.1358 17.2522 12.1432 17.2522H12.2885C13.1061 17.2522 13.7691 16.5936 13.7747 15.7749V15.7711C13.7747 15.3692 13.7989 14.9655 13.8548 14.5673C14.8605 7.47064 20.9806 1.99279 28.3578 1.99279C35.925 1.99279 42.1698 7.75718 42.9278 15.1218C42.9744 15.5665 43.3003 15.9405 43.7417 16.0167C43.8032 16.0279 43.8647 16.0335 43.9243 16.0335C44.5165 16.0335 44.9784 15.5218 44.9188 14.9301C44.5407 11.1715 42.9055 7.68275 40.218 4.95686C37.0965 1.79742 32.8221 0.00558204 28.3783 0C28.3727 0 28.3671 0 28.3597 0C23.914 0 19.7309 1.73043 16.5852 4.87126C13.7673 7.68648 12.0855 11.3334 11.767 15.2576H9.77974C9.38117 15.2576 9.01799 15.4976 8.86154 15.8642C8.70323 16.2326 8.78332 16.6568 9.06083 16.9471L15.2181 23.3497ZM25.1879 14.4333C25.1879 12.8908 26.0912 11.8209 27.5756 11.5251V10.6673C27.5756 10.2431 27.9201 9.89883 28.3448 9.89883C28.7694 9.89883 29.114 10.2431 29.114 10.6673V11.4916C29.7286 11.5846 30.2445 11.8079 30.6915 12.1149C31.1385 12.4219 31.213 13.0527 30.8572 13.4602C30.563 13.797 30.0675 13.8677 29.6876 13.6332C29.343 13.4192 28.9948 13.3095 28.5776 13.3095C27.8195 13.3095 27.4079 13.6146 27.4079 14.3217C27.4079 15.8232 31.5687 15.693 31.5687 18.7017C31.5687 20.2107 30.7343 21.3718 29.1158 21.7142V22.5924C29.1158 23.0166 28.7713 23.3609 28.3466 23.3609C27.922 23.3609 27.5774 23.0166 27.5774 22.5924V21.7886C26.9591 21.716 26.2644 21.5095 25.6461 21.1764C25.1581 20.9141 24.9961 20.2945 25.2959 19.8311C25.566 19.4125 26.1173 19.2748 26.5531 19.5185C27.0671 19.807 27.5551 19.9521 28.0635 19.9521C28.9575 19.9521 29.3505 19.5818 29.3505 18.8654C29.3486 17.2448 25.1879 17.2746 25.1879 14.4333Z" fill="#C21225"/>
<path d="M44.0714 16.4353C43.5201 16.4353 43.0731 16.8819 43.0731 17.4326C43.0731 17.9834 43.5201 18.43 44.0714 18.43C44.6227 18.43 45.0697 17.9834 45.0697 17.4326C45.0697 16.8819 44.6227 16.4353 44.0714 16.4353Z" fill="#070707"/>
<path d="M44.1385 18.9622C43.5872 18.9622 43.1403 19.4087 43.1403 19.9595C43.1403 20.5102 43.5872 20.9568 44.1385 20.9568C44.6898 20.9568 45.1368 20.5102 45.1368 19.9595C45.1368 19.4087 44.6898 18.9622 44.1385 18.9622Z" fill="#070707"/>
</g>
<defs>
<clipPath id="clip0_146_1489">
<rect width="46.9508" height="48" fill="white"/>
</clipPath>
</defs>
</svg>
