<svg width="20" height="20" viewBox="0 0 20 20" fill="none" xmlns="http://www.w3.org/2000/svg">
<path d="M18.0938 13.6796C17.9555 14.7346 17.4389 15.7036 16.64 16.4063C15.841 17.109 14.814 17.4976 13.75 17.4999C7.54688 17.4999 2.5 12.4531 2.5 6.24995C2.50235 5.18593 2.891 4.15896 3.59369 3.35999C4.29638 2.56102 5.26531 2.0444 6.32031 1.9062C6.58925 1.87638 6.8607 1.933 7.09529 2.06785C7.32989 2.20271 7.51542 2.40878 7.625 2.6562L9.19531 6.32026C9.27677 6.51045 9.30943 6.71797 9.29033 6.92398C9.27123 7.12999 9.20097 7.32797 9.08594 7.49995L7.78906 9.48432C8.37631 10.6761 9.34394 11.6382 10.5391 12.2187L12.5 10.914C12.6718 10.7982 12.8703 10.7281 13.0767 10.7103C13.2831 10.6926 13.4906 10.7277 13.6797 10.8124L17.3438 12.3749C17.5912 12.4845 17.7972 12.6701 17.9321 12.9047C18.0669 13.1392 18.1236 13.4107 18.0938 13.6796ZM12.2969 3.72651C13.2482 3.98642 14.1153 4.48989 14.8127 5.18724C15.5101 5.8846 16.0135 6.75173 16.2734 7.70307C16.3079 7.83664 16.3856 7.95504 16.4944 8.03983C16.6032 8.12462 16.7371 8.17103 16.875 8.17182C16.9305 8.17172 16.9857 8.16383 17.0391 8.14838C17.1185 8.12759 17.193 8.09116 17.2582 8.04121C17.3234 7.99127 17.378 7.92881 17.4187 7.85751C17.4594 7.7862 17.4856 7.70749 17.4955 7.62596C17.5054 7.54444 17.499 7.46176 17.4766 7.38276C17.1641 6.21767 16.5506 5.1553 15.6976 4.30234C14.8446 3.44939 13.7823 2.83586 12.6172 2.52338C12.5357 2.49368 12.4488 2.48128 12.3623 2.48697C12.2757 2.49266 12.1912 2.51632 12.1143 2.55643C12.0374 2.59655 11.9696 2.65224 11.9154 2.71997C11.8611 2.7877 11.8216 2.86598 11.7993 2.94983C11.777 3.03368 11.7723 3.12126 11.7857 3.20699C11.7991 3.29272 11.8302 3.37472 11.877 3.44778C11.9238 3.52084 11.9853 3.58336 12.0576 3.63134C12.1299 3.67933 12.2114 3.71174 12.2969 3.72651ZM11.6484 6.14057C12.1773 6.28533 12.6592 6.56534 13.0469 6.95302C13.4346 7.34071 13.7146 7.82269 13.8594 8.35151C13.8926 8.48574 13.97 8.60491 14.0791 8.68991C14.1882 8.77491 14.3226 8.82082 14.4609 8.82026C14.5139 8.82078 14.5667 8.81286 14.6172 8.79682C14.6973 8.77689 14.7727 8.74107 14.8387 8.69149C14.9048 8.64191 14.9602 8.57958 15.0018 8.50818C15.0433 8.43678 15.0701 8.35778 15.0805 8.27585C15.0909 8.19391 15.0848 8.11072 15.0625 8.0312C14.8652 7.28862 14.4751 6.61139 13.9319 6.0681C13.3886 5.5248 12.7113 5.13475 11.9688 4.93745C11.8872 4.90774 11.8004 4.89534 11.7138 4.90103C11.6272 4.90672 11.5428 4.93038 11.4659 4.9705C11.3889 5.01061 11.3212 5.06631 11.2669 5.13404C11.2127 5.20177 11.1732 5.28005 11.1509 5.36389C11.1285 5.44774 11.1239 5.53532 11.1373 5.62105C11.1507 5.70678 11.1817 5.78879 11.2286 5.86185C11.2754 5.93491 11.3369 5.99742 11.4092 6.04541C11.4814 6.09339 11.5629 6.1258 11.6484 6.14057Z" fill="#070707"/>
</svg>
