<svg xmlns="http://www.w3.org/2000/svg" width="23.18" height="26.3" viewBox="0 0 23.18 26.3">
    <defs>
        <style>
            .cls-1{fill:#fff;opacity:0}.cls-2{fill:#acd980}.cls-3{fill:#478b05}
        </style>
    </defs>
    <g id="insurance_icon" transform="translate(-73 -415)">
        <path id="Rectangle_1342" d="M0 0h23.18v26.3H0z" class="cls-1" data-name="Rectangle 1342" transform="translate(73 415)"/>
        <g id="insurance_icon-2" data-name="insurance_icon" transform="translate(73 415)">
            <path id="Path_5608" d="M689.327 132.3l-.2.085a28.522 28.522 0 0 1-7.476 2.163l-.448.053v5.615a9.115 9.115 0 0 0 3.982 7.535l4.146 2.834 4.146-2.834a9.124 9.124 0 0 0 3.981-7.535V134.6l-.447-.053a28.521 28.521 0 0 1-7.476-2.163l-.2-.085z" class="cls-2" data-name="Path 5608" transform="translate(-677.737 -128.433)"/>
            <path id="Path_5610" d="M685.163 127.2l-.211.092a30.018 30.018 0 0 1-7.788 2.253l-.463.059v5.84a9.485 9.485 0 0 0 4.145 7.848l4.317 2.953 4.317-2.953a9.5 9.5 0 0 0 4.146-7.848V129.6l-.463-.059a29.5 29.5 0 0 1-7.788-2.253l-.212-.086zm7.4 3.33v4.915a8.434 8.434 0 0 1-3.683 6.976l-3.722 2.543-3.722-2.543a8.451 8.451 0 0 1-3.683-6.976v-4.922a30.994 30.994 0 0 0 7.4-2.18 30.561 30.561 0 0 0 7.415 2.187z" data-name="Path 5610" transform="translate(-673.573 -123.713)"/>
            <path id="Path_5611" d="M667.3 94.67c-5.02 0-10.692-2.811-10.75-2.84l-.261-.13-.261.13c-.058.029-5.73 2.84-10.75 2.84h-.58v8.642a12.753 12.753 0 0 0 5.549 10.525l6.041 4.136 6.041-4.136a12.734 12.734 0 0 0 5.549-10.525V94.67zm-.58 8.642a11.6 11.6 0 0 1-5.042 9.569l-5.389 3.687-5.389-3.687a11.581 11.581 0 0 1-5.042-9.569v-7.5a29.842 29.842 0 0 0 10.431-2.825 29.845 29.845 0 0 0 10.431 2.825z" class="cls-2" data-name="Path 5611" transform="translate(-644.7 -91.7)"/>
            <path id="Path_5612" d="M74.277 72.6l-4.048 4.048-2.3 2.3-1.99-1.99L64.2 78.7l3.731 3.731 2.3-2.3 5.779-5.788z" class="cls-3" data-name="Path 5612" transform="translate(-57.875 -66.036)"/>
        </g>
    </g>
</svg>
