<svg width="15" height="12" viewBox="0 0 15 12" fill="none" xmlns="http://www.w3.org/2000/svg">
<path d="M3.50001 11.3334C2.94445 11.3334 2.47223 11.1389 2.08334 10.75C1.69445 10.3611 1.50001 9.88891 1.50001 9.33335H0.166672V2.00002C0.166672 1.63335 0.297338 1.31958 0.558672 1.05869C0.819561 0.797354 1.13334 0.666687 1.50001 0.666687H10.8333V3.33335H12.8333L14.8333 6.00002V9.33335H13.5C13.5 9.88891 13.3056 10.3611 12.9167 10.75C12.5278 11.1389 12.0556 11.3334 11.5 11.3334C10.9444 11.3334 10.4722 11.1389 10.0833 10.75C9.69445 10.3611 9.50001 9.88891 9.50001 9.33335H5.50001C5.50001 9.88891 5.30556 10.3611 4.91667 10.75C4.52778 11.1389 4.05556 11.3334 3.50001 11.3334ZM3.50001 10C3.68889 10 3.84734 9.93602 3.97534 9.80802C4.10289 9.68046 4.16667 9.52224 4.16667 9.33335C4.16667 9.14447 4.10289 8.98624 3.97534 8.85869C3.84734 8.73069 3.68889 8.66669 3.50001 8.66669C3.31112 8.66669 3.15267 8.73069 3.02467 8.85869C2.89712 8.98624 2.83334 9.14447 2.83334 9.33335C2.83334 9.52224 2.89712 9.68046 3.02467 9.80802C3.15267 9.93602 3.31112 10 3.50001 10ZM1.50001 8.00002H2.03334C2.22223 7.80002 2.43889 7.63891 2.68334 7.51669C2.92778 7.39446 3.20001 7.33335 3.50001 7.33335C3.80001 7.33335 4.07223 7.39446 4.31667 7.51669C4.56112 7.63891 4.77778 7.80002 4.96667 8.00002H9.50001V2.00002H1.50001V8.00002ZM11.5 10C11.6889 10 11.8471 9.93602 11.9747 9.80802C12.1027 9.68046 12.1667 9.52224 12.1667 9.33335C12.1667 9.14447 12.1027 8.98624 11.9747 8.85869C11.8471 8.73069 11.6889 8.66669 11.5 8.66669C11.3111 8.66669 11.1529 8.73069 11.0253 8.85869C10.8973 8.98624 10.8333 9.14447 10.8333 9.33335C10.8333 9.52224 10.8973 9.68046 11.0253 9.80802C11.1529 9.93602 11.3111 10 11.5 10ZM10.8333 6.66669H13.6667L12.1667 4.66669H10.8333V6.66669Z" fill="white"/>
</svg>
