<svg width="72" height="72" viewBox="0 0 72 72" fill="none" xmlns="http://www.w3.org/2000/svg">
<g clip-path="url(#clip0_505_4996)">
<path d="M54.8877 24.2401C55.0692 23.8594 55.3582 23.5402 55.719 23.3218C56.0798 23.1035 56.4967 22.9955 56.9181 23.0113C59.5965 23.0113 62.2749 23.0113 64.9581 23.0113C65.4149 23.0128 65.8624 23.1399 66.2518 23.3786C66.6412 23.6173 66.9575 23.9585 67.1661 24.3649C68.6221 26.7969 70.0845 29.2257 71.5533 31.6513C71.6829 31.8625 71.7357 32.1313 71.9997 32.2465V33.2065C71.717 34.2508 71.5338 35.3196 71.4525 36.3985C71.0157 39.1969 70.6317 42.0049 70.2285 44.8129C70.0653 45.9409 69.8925 47.0641 69.7485 48.1729C69.6045 49.2817 69.6333 49.3201 68.4669 49.2865H68.3277C68.2195 49.1799 68.1426 49.0457 68.1053 48.8984C68.0681 48.7511 68.0719 48.5965 68.1165 48.4513C68.8413 43.5985 69.4845 38.7313 70.2525 33.8833C70.3842 33.1506 70.2314 32.3952 69.8253 31.7713C68.5197 29.6737 67.2669 27.5473 65.9853 25.4353C65.8375 25.1465 65.6081 24.9075 65.3257 24.7479C65.0432 24.5883 64.7201 24.5152 64.3965 24.5377C61.5741 24.5377 58.7517 24.5377 55.9341 24.5377C55.5837 24.5617 55.1421 24.6865 54.8877 24.2401Z" fill="#5B9C51"/>
<path d="M0.292969 30.0048C0.456726 29.7634 0.683047 29.5711 0.947699 29.4485C1.21235 29.3259 1.50537 29.2776 1.79537 29.3088C5.07857 29.3088 8.36657 29.3088 11.6546 29.3088C11.865 29.3062 12.0753 29.3207 12.2834 29.352C12.538 29.352 12.7822 29.4531 12.9622 29.6331C13.1422 29.8132 13.2434 30.0574 13.2434 30.312C13.2434 30.5666 13.1422 30.8107 12.9622 30.9908C12.7822 31.1708 12.538 31.272 12.2834 31.272C12.0781 31.3164 11.8693 31.3421 11.6594 31.3488H1.74737C1.47184 31.3725 1.19471 31.3275 0.940867 31.2178C0.68702 31.108 0.464394 30.937 0.292969 30.72V30.0048Z" fill="#323232"/>
<path d="M54.8883 24.2401C58.1331 24.2401 61.3731 24.2689 64.6179 24.2401C64.9423 24.2168 65.2663 24.29 65.549 24.4506C65.8318 24.6112 66.0606 24.852 66.2067 25.1425C67.5939 27.4897 69.0051 29.8225 70.4211 32.1553C70.6455 32.5052 70.7279 32.9275 70.6515 33.3361C69.9123 38.3089 69.2115 43.2913 68.4915 48.2689C68.4387 48.6145 68.3907 48.9601 68.3427 49.3057H65.7075C65.4387 48.8257 65.7843 48.4513 65.9235 48.0529C66.3308 47.0069 66.4095 45.8616 66.1491 44.7697C65.6691 42.8833 64.3779 41.8417 62.5539 41.3329C61.8704 41.0855 61.1179 41.1096 60.4515 41.4001C57.2835 41.9761 54.6387 45.1009 55.1091 48.5425C55.1475 48.8257 55.2003 49.1041 54.9267 49.3057H51.1251C51.0084 49.2094 50.921 49.0825 50.8726 48.9391C50.8243 48.7958 50.817 48.6418 50.8515 48.4945C51.0243 47.3761 51.1491 46.2529 51.3315 45.1345C51.3405 44.9965 51.377 44.8618 51.4388 44.7381C51.5006 44.6145 51.5866 44.5044 51.6915 44.4145C52.0275 42.9745 52.1715 41.5345 52.3683 40.0945C52.8723 36.6913 53.3283 33.2881 53.8323 29.8849C54.0435 28.4113 54.2643 26.9425 54.4707 25.4689C54.4998 25.0297 54.6438 24.606 54.8883 24.2401Z" fill="#76A76F"/>
<path d="M14.1884 39.6239H14.2652C14.4902 39.5626 14.725 39.5462 14.9564 39.5759C25.6956 39.5759 36.4316 39.5759 47.1644 39.5759C48.1724 39.5759 48.2732 39.7007 48.1244 40.7327C47.9756 41.7647 47.8556 42.6527 47.7068 43.6127C47.606 44.2463 47.2796 44.4623 46.6556 44.4575C43.0364 44.4575 39.422 44.4575 35.8028 44.4575C35.366 44.4575 35.1644 44.1167 34.9964 43.7759C34.1612 42.1103 32.6636 41.4479 30.9548 41.1167C30.5102 41.0529 30.057 41.1354 29.6636 41.3519C27.9946 41.6881 26.5128 42.6389 25.5116 44.0159C25.2908 44.3135 25.0604 44.6111 24.6332 44.6111C24.0346 44.7173 23.4252 44.7495 22.8188 44.7071C21.326 44.7071 19.8332 44.7071 18.3404 44.7071C17.4284 44.7071 17.1596 44.9711 16.9724 45.8687C16.7852 46.7663 16.7324 46.8287 15.7868 46.8287C14.9468 46.8287 14.1068 46.8287 13.2668 46.8287C13.0556 45.9455 13.406 45.1055 13.502 44.2463C13.6748 42.7199 13.9532 41.1791 14.1884 39.6239Z" fill="#FABE6E"/>
<path d="M48.0482 39.5184C48.125 37.8864 48.4562 36.288 48.6722 34.68C49.1522 31.2432 49.6322 27.816 50.1506 24.384C50.2658 23.5824 50.3186 22.7616 50.4962 21.984C50.6546 21.3072 50.4098 21.1824 49.805 21.1824C45.9314 21.1824 42.0578 21.1824 38.189 21.1824H16.8482C16.8436 21.1603 16.8436 21.1374 16.8482 21.1152C17.213 18.984 16.6514 19.32 18.821 19.3152C29.7938 19.3152 40.765 19.3152 51.7346 19.3152C52.805 19.3152 52.7858 19.3152 52.6274 20.3616C52.1474 23.352 51.7394 26.3424 51.3122 29.3376C50.8226 32.7456 50.3426 36.1536 49.8722 39.5616C49.6079 39.7611 49.2838 39.8654 48.9527 39.8576C48.6216 39.8497 48.3029 39.7302 48.0482 39.5184Z" fill="#5B9C51"/>
<path d="M49.7275 49.3056H34.9099C34.6939 49.008 34.8523 48.7344 34.9675 48.456C35.4628 47.4271 35.6303 46.2711 35.4475 45.144C35.3947 44.8752 35.2555 44.4672 35.7499 44.3616H46.2187C46.7255 44.3846 47.2328 44.3263 47.7211 44.1888C47.9573 44.0861 48.2175 44.0519 48.4721 44.0901C48.7268 44.1283 48.9655 44.2374 49.1611 44.4048L50.4283 44.4528C50.5385 44.5401 50.6221 44.6565 50.6696 44.7888C50.7171 44.9212 50.7266 45.0641 50.6971 45.2016C50.5051 46.3248 50.3995 47.4576 50.2171 48.5616C50.1998 48.7154 50.1464 48.8629 50.0613 48.9922C49.9763 49.1214 49.8619 49.2288 49.7275 49.3056Z" fill="#76A76F"/>
<path d="M54.9268 49.3201C54.394 45.0913 56.4484 41.9905 60.3844 41.0977C61.3444 41.0977 62.3044 41.0977 63.1252 41.6737C63.8608 42.1048 64.4729 42.7182 64.9025 43.4547C65.3322 44.1912 65.5648 45.0259 65.578 45.8785C65.6452 48.6865 64.4308 50.7409 62.0164 52.1185C61.5012 52.3835 60.9496 52.5711 60.3796 52.6753C57.7588 52.8673 55.9636 51.7057 54.9268 49.3201Z" fill="#323232"/>
<path d="M24.8303 44.4385C25.9967 42.7393 27.4943 41.5105 29.5679 41.0785C30.1557 41.0045 30.7523 41.0488 31.3227 41.2087C31.8932 41.3686 32.4259 41.6409 32.8895 42.0097C33.4293 42.4339 33.8749 42.9658 34.198 43.5715C34.5211 44.1772 34.7146 44.8435 34.7663 45.5281C34.8785 46.5633 34.7444 47.6104 34.3749 48.5839C34.0053 49.5574 33.4108 50.4297 32.6399 51.1297C31.7912 51.9291 30.7293 52.4658 29.5823 52.6753C26.8943 52.7953 25.2239 51.7441 24.2063 49.3153C24.0523 49.2333 23.9236 49.1108 23.8339 48.9612C23.7443 48.8115 23.6971 48.6402 23.6975 48.4657C23.5788 47.3562 23.744 46.2347 24.1775 45.2065C24.3002 44.883 24.5308 44.6117 24.8303 44.4385Z" fill="#323232"/>
<path d="M24.8309 44.4384C24.0533 45.984 23.6597 47.5824 24.1925 49.3008C21.9317 49.3008 19.6709 49.3248 17.4101 49.3008C16.5797 49.3008 16.2485 48.8688 16.3541 48.0384C16.4981 46.8912 16.4981 46.9008 15.3605 46.8912C14.6645 46.8912 13.9685 46.8624 13.2725 46.848C14.1797 46.848 15.0869 46.8 15.9941 46.8048C16.3637 46.8048 16.5605 46.6992 16.5701 46.3248C16.5888 46.0922 16.6241 45.8612 16.6757 45.6336C16.6848 45.4635 16.7277 45.2969 16.802 45.1436C16.8763 44.9903 16.9803 44.8533 17.1082 44.7407C17.236 44.628 17.385 44.542 17.5464 44.4877C17.7079 44.4333 17.8785 44.4117 18.0485 44.424C20.3093 44.4192 22.5605 44.4336 24.8309 44.4384Z" fill="#76A76F"/>
<path d="M7.87187 35.4432C6.82547 35.4432 5.77907 35.4432 4.72787 35.4432C3.95028 35.4432 3.53267 35.0688 3.50867 34.4832C3.47507 33.816 3.90227 33.4224 4.76147 33.408C6.15827 33.408 7.55507 33.408 8.95187 33.408C9.64787 33.408 10.3487 33.408 11.0447 33.408C11.7407 33.408 12.2399 33.8448 12.2495 34.416C12.2591 34.9872 11.8031 35.4384 11.0159 35.4528C9.96947 35.4528 8.91827 35.4528 7.87187 35.4528V35.4432Z" fill="#323232"/>
<path d="M49.1664 44.4L35.6208 44.4384C35.5776 44.4096 35.5632 44.3808 35.568 44.3472C35.5728 44.3136 35.568 44.2896 35.5968 44.2896C39.2304 44.2896 42.8688 44.2896 46.5072 44.2896C47.064 44.2896 47.3424 44.1792 47.4048 43.5552C47.5104 42.4704 47.712 41.3904 47.8848 40.3152C47.952 39.8832 47.8368 39.6288 47.3472 39.6576C47.1408 39.6576 46.9296 39.6576 46.7184 39.6576H15.3168C14.9664 39.6576 14.616 39.6576 14.2656 39.6336C14.5708 39.5144 14.9024 39.4796 15.2256 39.5328H47.0688C47.3952 39.5328 47.7216 39.5328 48.0288 39.5328L49.824 39.576L49.1664 44.4Z" fill="#EEA658"/>
<path d="M35.5965 44.2897V44.4385C36.1053 46.1713 35.7309 47.7985 34.8861 49.3057C34.3679 50.138 33.6895 50.859 32.8902 51.4268C32.0908 51.9945 31.1866 52.3977 30.2301 52.6129C30.0029 52.6484 29.7736 52.6692 29.5437 52.6753C31.2567 52.0837 32.7053 50.9055 33.6333 49.3489C34.7421 47.5249 34.9485 44.5873 33.1533 42.7009C32.3438 41.8431 31.2468 41.3134 30.0717 41.2129C29.8839 41.2235 29.6966 41.1837 29.5293 41.0977C32.1933 40.5121 34.2765 41.6161 35.5965 44.2897Z" fill="#1A1A1A"/>
<path d="M60.3787 52.6799C62.1522 52.0658 63.6361 50.8178 64.5451 49.1759C65.6731 47.1311 65.6587 44.1119 63.6235 42.4079C62.8224 41.7684 61.8642 41.3556 60.8491 41.2127C60.6907 41.1839 60.5371 41.1359 60.3691 41.0975C61.6611 40.7793 63.0264 40.9854 64.1669 41.6708C65.3073 42.3561 66.1301 43.465 66.4555 44.7551C66.8395 46.3871 66.4555 47.8799 65.6923 49.3199C64.6564 50.9702 63.0136 52.1476 61.1179 52.5983C60.8733 52.6395 60.6265 52.6667 60.3787 52.6799Z" fill="#1A1A1A"/>
<path d="M8.69789 37.5456H10.3779C10.4933 37.5324 10.6102 37.5425 10.7216 37.5755C10.833 37.6085 10.9367 37.6636 11.0263 37.7375C11.1159 37.8115 11.1897 37.9027 11.2432 38.0058C11.2968 38.1089 11.329 38.2218 11.3379 38.3376C11.3703 38.4631 11.3754 38.5941 11.3526 38.7218C11.3299 38.8494 11.28 38.9706 11.2062 39.0772C11.1324 39.1838 11.0365 39.2732 10.925 39.3394C10.8136 39.4056 10.6892 39.447 10.5603 39.4608C9.33145 39.5856 8.09312 39.5856 6.86429 39.4608C6.60968 39.4392 6.3741 39.3173 6.20936 39.1219C6.04463 38.9266 5.96424 38.6738 5.98589 38.4192C6.00753 38.1646 6.12943 37.929 6.32476 37.7643C6.5201 37.5996 6.77288 37.5192 7.02749 37.5408L8.69789 37.5456Z" fill="#323232"/>
<path d="M49.7275 49.3056C50.0443 47.6976 50.2747 46.0752 50.4331 44.448H51.7051L51.2251 48.288C51.1867 48.6288 51.1675 48.9744 51.1339 49.32L49.7275 49.3056Z" fill="#5B9C51"/>
<path d="M66.8158 32.4001C63.5998 32.4001 60.3838 32.4001 57.1678 32.4337C56.7262 32.4337 56.6878 32.2465 56.7262 31.8865C57.0238 29.9665 57.307 28.0177 57.595 26.0833C58.9624 25.9857 60.3341 25.9648 61.7038 26.0209C63.5806 26.0209 63.3022 25.7905 64.3198 27.4897C65.0734 28.7473 65.8318 30.0001 66.5854 31.2625C66.787 31.5985 67.1326 31.9441 66.8158 32.4001Z" fill="#FEFEFE"/>
<path d="M66.8163 32.3999C66.0579 30.8255 64.9347 29.4479 64.2195 27.8687C63.5043 26.2895 62.5299 25.8671 60.9459 26.0543C59.8275 26.1315 58.7055 26.1411 57.5859 26.0831C57.7203 25.8287 57.9603 25.9487 58.1475 25.9487C60.0675 25.9487 61.9875 25.9487 63.9075 25.9487C64.0794 25.9319 64.2522 25.9692 64.4018 26.0552C64.5515 26.1412 64.6707 26.2718 64.7427 26.4287C65.8179 28.2527 66.9107 30.0687 68.0211 31.8767C68.3331 32.3855 68.2707 32.5823 67.6563 32.5199C67.3683 32.4623 67.0803 32.5487 66.8163 32.3999Z" fill="#FEFEFE"/>
<path d="M61.0891 49.3585C60.6416 49.5325 60.1505 49.5607 59.6859 49.4392C59.2213 49.3177 58.807 49.0526 58.5019 48.6817C58.1945 48.295 58.0139 47.823 57.9847 47.3299C57.9555 46.8368 58.0791 46.3467 58.3387 45.9265C58.5142 45.5707 58.7599 45.2542 59.061 44.996C59.3621 44.7378 59.7124 44.5432 60.0907 44.4241C60.6127 44.2527 61.1813 44.2954 61.6718 44.5429C62.1623 44.7904 62.5345 45.2224 62.7067 45.7441C62.9201 46.3231 62.934 46.9569 62.7462 47.5447C62.5583 48.1325 62.1796 48.6408 61.6699 48.9889C61.4647 49.0927 61.2701 49.2165 61.0891 49.3585Z" fill="#FEFEFE"/>
<path d="M61.0892 49.3583C61.3484 48.8783 61.8812 48.6671 62.1404 48.1775C62.6204 47.2991 62.7836 46.4447 62.2604 45.5279C62.0492 45.1493 61.7301 44.8422 61.3437 44.6456C60.9573 44.449 60.5212 44.3718 60.0908 44.4239C60.5062 44.2102 60.979 44.135 61.4402 44.2092C61.9014 44.2835 62.3267 44.5034 62.654 44.8367C62.9988 45.1563 63.2344 45.5762 63.3274 46.0371C63.4204 46.4979 63.3662 46.9764 63.1724 47.4047C63.0281 47.885 62.7594 48.3186 62.3936 48.6617C62.0277 49.0047 61.5778 49.2451 61.0892 49.3583Z" fill="#FEFEFE"/>
<path d="M30.2738 49.3584C29.8468 49.5211 29.3804 49.5494 28.9368 49.4396C28.4933 49.3298 28.0939 49.0871 27.7922 48.744C27.4829 48.4056 27.283 47.9816 27.2187 47.5277C27.1545 47.0737 27.2289 46.6109 27.4322 46.2C27.5854 45.7832 27.8314 45.4067 28.1516 45.099C28.4717 44.7913 28.8577 44.5605 29.2802 44.424C30.6146 44.1984 31.469 44.5968 31.9058 45.6576C32.13 46.2364 32.1574 46.8729 31.9839 47.4689C31.8104 48.0648 31.4456 48.5871 30.9458 48.9552C30.7128 49.0739 30.4883 49.2087 30.2738 49.3584Z" fill="#FEFEFE"/>
<path d="M30.2739 49.3585C30.6541 48.9925 31.0056 48.5977 31.3251 48.1777C31.8051 47.3185 32.0307 46.4401 31.5027 45.5473C31.2918 45.155 30.9656 44.8369 30.5682 44.6361C30.1707 44.4352 29.7212 44.3612 29.2803 44.4241C29.6814 44.2058 30.1414 44.1203 30.5941 44.1798C31.0469 44.2393 31.4692 44.4408 31.8003 44.7553C32.1565 45.0465 32.4121 45.4424 32.531 45.8868C32.6499 46.3313 32.626 46.8019 32.4627 47.2321C32.3301 47.7542 32.0553 48.2294 31.6689 48.6048C31.2825 48.9801 30.7996 49.241 30.2739 49.3585Z" fill="#FEFEFE"/>
<path d="M49.9197 20.8801C49.5693 20.8801 49.2189 20.8801 48.8685 20.8801H18.5661C18.2157 20.8801 17.8701 20.8801 17.5197 20.8801C17.3913 20.8705 17.2627 20.8932 17.1453 20.946C17.028 20.9988 16.9257 21.0801 16.8477 21.1825C16.3677 24.6385 15.8877 28.0945 15.3693 31.5505C14.9789 34.2449 14.5853 36.9361 14.1885 39.6241C14.2194 39.6581 14.2572 39.6852 14.2994 39.7034C14.3416 39.7216 14.3873 39.7306 14.4333 39.7297C25.4061 39.7488 36.3789 39.7488 47.3517 39.7297C47.6082 39.7655 47.8695 39.722 48.1005 39.6049C48.3514 39.2101 48.4862 38.7526 48.4893 38.2849L49.8573 28.7377C50.1789 26.4817 50.5101 24.2209 50.8173 21.9601C50.9133 21.2401 50.6493 20.9329 49.9197 20.8801Z" fill="#76A76F"/>
<path d="M25.8165 27.9761C25.8547 28.0698 25.8757 28.1975 25.8796 28.3593C25.8943 28.5125 25.8806 28.6743 25.8384 28.8446C25.7563 29.1766 25.6227 29.415 25.4378 29.5598C25.2638 29.696 25.054 29.7641 24.8084 29.7641H22.0456L21.6885 31.2073H24.5697C24.6167 31.3009 24.6432 31.4244 24.6491 31.5776C24.6638 31.7309 24.6501 31.8926 24.608 32.0629C24.5279 32.3865 24.3954 32.6206 24.2105 32.7653C24.0365 32.9016 23.8267 32.9697 23.5811 32.9697H21.2787L20.612 35.6644C20.5092 35.6899 20.3494 35.7155 20.1326 35.741C19.9245 35.7666 19.7196 35.7793 19.5179 35.7793C19.3162 35.7793 19.1406 35.7623 18.9911 35.7283C18.8484 35.7027 18.7338 35.6516 18.6475 35.575C18.5612 35.4984 18.5086 35.3919 18.4897 35.2557C18.4708 35.1195 18.4887 34.9407 18.5435 34.7193L19.918 29.1639C20.0086 28.7978 20.1899 28.5083 20.4618 28.2954C20.7337 28.0826 21.0583 27.9761 21.4354 27.9761H25.8165Z" fill="#FEFEFE"/>
<path d="M28.1948 33.2123L27.5881 35.6644C27.4853 35.6899 27.3255 35.7155 27.1087 35.741C26.9006 35.7666 26.6958 35.7793 26.494 35.7793C26.2923 35.7793 26.1167 35.7623 25.9673 35.7283C25.8245 35.7027 25.7099 35.6516 25.6236 35.575C25.5461 35.4984 25.4979 35.3919 25.479 35.2557C25.4601 35.1195 25.478 34.9407 25.5328 34.7193L27.0211 28.7041C27.0653 28.5253 27.1473 28.3891 27.2669 28.2954C27.3974 28.1933 27.5578 28.1124 27.7479 28.0528C28.0714 27.9506 28.4358 27.8782 28.841 27.8357C29.2483 27.7846 29.6757 27.759 30.123 27.759C31.3333 27.759 32.1844 28.0059 32.6762 28.4998C33.168 28.9936 33.3096 29.6619 33.101 30.5048C32.9704 31.0327 32.7185 31.484 32.3451 31.8586C31.9717 32.2332 31.5668 32.5227 31.1303 32.727C31.3429 33.1442 31.5573 33.5359 31.7737 33.902C31.9901 34.2681 32.1492 34.6001 32.2509 34.8981C32.0894 35.1961 31.8703 35.426 31.5934 35.5878C31.3275 35.741 31.0498 35.8176 30.7603 35.8176C30.5674 35.8176 30.406 35.7964 30.2762 35.7538C30.1464 35.7112 30.0384 35.6516 29.9521 35.575C29.8658 35.4984 29.7925 35.4047 29.7321 35.294C29.6718 35.1833 29.618 35.0641 29.5707 34.9364L28.8921 33.2123H28.1948ZM29.4439 31.5138C29.7772 31.5138 30.0604 31.4329 30.2933 31.2711C30.5284 31.1008 30.686 30.8539 30.7661 30.5304C30.8461 30.2068 30.7965 29.9642 30.6173 29.8024C30.4489 29.6321 30.1323 29.547 29.6674 29.547C29.5359 29.547 29.4296 29.5513 29.3485 29.5598C29.2675 29.5683 29.1766 29.5811 29.0759 29.5981L28.6019 31.5138H29.4439Z" fill="#FEFEFE"/>
<path d="M34.9244 29.1639C35.015 28.7978 35.1963 28.5083 35.4682 28.2954C35.7401 28.0826 36.0647 27.9761 36.4418 27.9761H40.7834C40.8216 28.0698 40.8437 28.1933 40.8496 28.3465C40.8643 28.4998 40.8506 28.6615 40.8085 28.8318C40.7285 29.1553 40.597 29.3852 40.4142 29.5215C40.2402 29.6577 40.0347 29.7258 39.7979 29.7258H37.022L36.7281 30.9135H39.6883C39.7265 31.0072 39.7486 31.1306 39.7545 31.2839C39.7713 31.4286 39.7586 31.5861 39.7165 31.7564C39.6365 32.0799 39.5094 32.3098 39.3354 32.4461C39.1613 32.5823 38.9559 32.6504 38.7191 32.6504H36.2983L35.9666 33.9914H39.3477C39.3859 34.085 39.408 34.2085 39.414 34.3617C39.4287 34.515 39.415 34.6768 39.3728 34.847C39.2928 35.1706 39.1603 35.4047 38.9754 35.5495C38.8013 35.6857 38.5959 35.7538 38.3591 35.7538H34.5175C34.1403 35.7538 33.8684 35.6474 33.7018 35.4345C33.5352 35.2217 33.4972 34.9322 33.5878 34.5661L34.9244 29.1639Z" fill="#FEFEFE"/>
<path d="M42.1321 29.1639C42.2227 28.7978 42.404 28.5083 42.6759 28.2954C42.9478 28.0826 43.2724 27.9761 43.6495 27.9761H47.9911C48.0293 28.0698 48.0514 28.1933 48.0573 28.3465C48.072 28.4998 48.0583 28.6615 48.0162 28.8318C47.9361 29.1553 47.8047 29.3852 47.6219 29.5215C47.4479 29.6577 47.2424 29.7258 47.0056 29.7258H44.2297L43.9358 30.9135H46.8959C46.9342 31.0072 46.9563 31.1306 46.9622 31.2839C46.979 31.4286 46.9663 31.5861 46.9242 31.7564C46.8442 32.0799 46.7171 32.3098 46.5431 32.4461C46.369 32.5823 46.1636 32.6504 45.9268 32.6504H43.506L43.1743 33.9914H46.5554C46.5936 34.085 46.6157 34.2085 46.6217 34.3617C46.6364 34.515 46.6227 34.6768 46.5805 34.847C46.5005 35.1706 46.368 35.4047 46.1831 35.5495C46.009 35.6857 45.8036 35.7538 45.5668 35.7538H41.7252C41.348 35.7538 41.0761 35.6474 40.9095 35.4345C40.7429 35.2217 40.7049 34.9322 40.7955 34.5661L42.1321 29.1639Z" fill="#FEFEFE"/>
</g>
<defs>
<clipPath id="clip0_505_4996">
<rect width="72" height="72" fill="white"/>
</clipPath>
</defs>
</svg>
